M48
;Layer_Color=9474304
;FILE_FORMAT=2:5
INCH,LZ
;TYPE=PLATED
T01F00S00C0.01968
T02F00S00C0.03937
T03F00S00C0.08071
%
T01
X0018232Y0021415
X0065995Y0013602
X0069879Y0013617
X008936Y002017
X0092606Y002026
X0114288Y0018861
X0116842Y0004699
X0142841Y0004037
X0146406
X0146091Y0016009
X0149391Y001595
X0182232Y0021415
X0229995Y0013602
X0233879Y0013617
X025336Y002017
X0256606Y002026
X0278288Y0018861
X0280842Y0004699
X0306841Y0004037
X0310406
X0310091Y0016009
X0313391Y001595
X0346232Y0021415
X0393995Y0013602
X0397879Y0013617
X041736Y002017
X0420606Y002026
X0442288Y0018861
X0444842Y0004699
X0470842Y0004037
X0474406
X0474091Y0016009
X0477391Y001595
X0510232Y0021415
X0557996Y0013602
X0561879Y0013617
X058136Y002017
X0584606Y002026
X0606288Y0018861
X0608842Y0004699
X0634842Y0004037
X0638406
X0638092Y0016009
X0641391Y001595
X0674232Y0021415
X0721996Y0013602
X0725879Y0013617
X0745361Y002017
X0748606Y002026
X0770289Y0018861
X0772842Y0004699
X0798842Y0004037
X0802407
X0802092Y0016009
X0805391Y001595
X0800025Y0030617
X0796766Y003058
X0793282Y0035399
X0793325Y0038659
X0779606Y0030711
X0776309Y0030516
X0768991Y0024168
X0763553Y0027751
X0756378Y0025217
X0746379Y0029617
X0746333Y0034272
X0749796Y003927
X0747254Y0043201
X074808Y00516
X075122
X0754217
X073399Y0048888
X0733931Y0044342
X0734813Y0036722
X0726257Y0037546
X0721302
X0721862Y0031088
X0726098Y0031051
X0711533Y0031446
X0690857Y0029116
X0687495Y0029086
X06745Y00345
X0688206Y0055428
X0691943Y0053812
X0717433Y0056855
X0717525Y0061699
X0734231Y0060988
X0734255Y0057688
X0726994Y0047514
X0723255Y0047583
X0721996Y0083102
X0725879Y0083117
X0726098Y0100551
X0721862Y0100588
X0721302Y0107046
X0726257
X0734813Y0106222
X0733931Y0113842
X073399Y0118388
X0726994Y0117014
X0723255Y0117083
X0717433Y0126355
X0717525Y0131199
X0734231Y0130489
X0734255Y0127188
X074808Y01211
X075122
X0754217
X0747254Y0112701
X0749796Y0108771
X0746333Y0103772
X0746379Y0099117
X0745361Y008967
X0748606Y008976
X0756378Y0094717
X0763553Y0097251
X0768991Y0093668
X0770289Y0088361
X0772842Y0074199
X0798842Y0073537
X0802407
X0802092Y0085509
X0805391Y008545
X0800025Y0100117
X0796766Y010008
X0793282Y0104899
X0793325Y0108159
X0779606Y0100211
X0776309Y0100016
X0770585Y0109014
X0772842Y01437
X0770289Y0157861
X0768991Y0163168
X0763553Y0166751
X0756378Y0164217
X0748606Y015926
X0745361Y015917
X0746379Y0168617
X0746333Y0173272
X0749796Y017827
X0734813Y0175722
X0726257Y0176546
X0721302
X0721862Y0170088
X0726098Y0170051
X0711533Y0170446
X0690857Y0168116
X0687495Y0168086
X06745Y01735
X0674232Y0160415
X0688206Y0124928
X0691943Y0123312
X0690857Y0098616
X0687495Y0098586
X06745Y0104
X0674232Y0090915
X0711533Y0100946
X0721996Y0152602
X0725879Y0152617
X0776309Y0169516
X0779606Y0169711
X0796766Y016958
X0800025Y0169617
X0793282Y0174399
X0793325Y0177659
X0770585Y0178515
X0802092Y0155009
X0805391Y015495
X0802407Y0143037
X0798842
X0770585Y0039514
X0629325Y0038659
X0629282Y0035399
X0632765Y003058
X0636025Y0030617
X0615606Y0030711
X0612309Y0030516
X0604991Y0024168
X0599552Y0027751
X0592378Y0025217
X0582379Y0029617
X0582333Y0034272
X0585796Y003927
X0583254Y0043201
X058408Y00516
X058722
X0590217
X056999Y0048888
X0569931Y0044342
X0570813Y0036722
X0562257Y0037546
X0557302
X0557862Y0031088
X0562098Y0031051
X0547533Y0031446
X0526857Y0029116
X0523495Y0029086
X05105Y00345
X0524205Y0055428
X0527943Y0053812
X0553433Y0056855
X0553525Y0061699
X0570231Y0060988
X0570255Y0057688
X0562994Y0047514
X0559255Y0047583
X0557996Y0083102
X0561879Y0083117
X0562098Y0100551
X0557862Y0100588
X0557302Y0107046
X0562257
X0570813Y0106222
X0569931Y0113842
X056999Y0118388
X0562994Y0117014
X0559255Y0117083
X0553433Y0126355
X0553525Y0131199
X0570231Y0130489
X0570255Y0127188
X058408Y01211
X058722
X0590217
X0583254Y0112701
X0585796Y0108771
X0582333Y0103772
X0582379Y0099117
X058136Y008967
X0584606Y008976
X0592378Y0094717
X0599552Y0097251
X0604991Y0093668
X0606288Y0088361
X0608842Y0074199
X0634842Y0073537
X0638406
X0638092Y0085509
X0641391Y008545
X0636025Y0100117
X0632765Y010008
X0629282Y0104899
X0629325Y0108159
X0615606Y0100211
X0612309Y0100016
X0606585Y0109014
X0608842Y01437
X0606288Y0157861
X0604991Y0163168
X0599552Y0166751
X0592378Y0164217
X0584606Y015926
X058136Y015917
X0582379Y0168617
X0582333Y0173272
X0585796Y017827
X0570813Y0175722
X0562257Y0176546
X0557302
X0557862Y0170088
X0562098Y0170051
X0547533Y0170446
X0526857Y0168116
X0523495Y0168086
X05105Y01735
X0510232Y0160415
X0524205Y0124928
X0527943Y0123312
X0526857Y0098616
X0523495Y0098586
X05105Y0104
X0510232Y0090915
X0547533Y0100946
X0557996Y0152602
X0561879Y0152617
X0612309Y0169516
X0615606Y0169711
X0632765Y016958
X0636025Y0169617
X0629282Y0174399
X0629325Y0177659
X0606585Y0178515
X0638092Y0155009
X0641391Y015495
X0638406Y0143037
X0634842
X0606585Y0039514
X0465325Y0038659
X0465282Y0035399
X0468765Y003058
X0472025Y0030617
X0451606Y0030711
X0448309Y0030516
X044099Y0024168
X0435552Y0027751
X0428378Y0025217
X0418379Y0029617
X0418333Y0034272
X0421796Y003927
X0419254Y0043201
X042008Y00516
X042322
X0426217
X040599Y0048888
X0405931Y0044342
X0406813Y0036722
X0398257Y0037546
X0393302
X0393862Y0031088
X0398098Y0031051
X0383533Y0031446
X0362857Y0029116
X0359495Y0029086
X03465Y00345
X0360206Y0055428
X0363943Y0053812
X0389433Y0056855
X0389525Y0061699
X0406231Y0060988
X0406255Y0057688
X0398994Y0047514
X0395255Y0047583
X0393995Y0083102
X0397879Y0083117
X0398098Y0100551
X0393862Y0100588
X0393302Y0107046
X0398257
X0406813Y0106222
X0405931Y0113842
X040599Y0118388
X0398994Y0117014
X0395255Y0117083
X0389433Y0126355
X0389525Y0131199
X0406231Y0130489
X0406255Y0127188
X042008Y01211
X042322
X0426217
X0419254Y0112701
X0421796Y0108771
X0418333Y0103772
X0418379Y0099117
X041736Y008967
X0420606Y008976
X0428378Y0094717
X0435552Y0097251
X044099Y0093668
X0442288Y0088361
X0444842Y0074199
X0470842Y0073537
X0474406
X0474091Y0085509
X0477391Y008545
X0472025Y0100117
X0468765Y010008
X0465282Y0104899
X0465325Y0108159
X0451606Y0100211
X0448309Y0100016
X0442585Y0109014
X0444842Y01437
X0442288Y0157861
X044099Y0163168
X0435552Y0166751
X0428378Y0164217
X0420606Y015926
X041736Y015917
X0418379Y0168617
X0418333Y0173272
X0421796Y017827
X0406813Y0175722
X0398257Y0176546
X0393302
X0393862Y0170088
X0398098Y0170051
X0383533Y0170446
X0362857Y0168116
X0359495Y0168086
X03465Y01735
X0346232Y0160415
X0360206Y0124928
X0363943Y0123312
X0362857Y0098616
X0359495Y0098586
X03465Y0104
X0346232Y0090915
X0383533Y0100946
X0393995Y0152602
X0397879Y0152617
X0448309Y0169516
X0451606Y0169711
X0468765Y016958
X0472025Y0169617
X0465282Y0174399
X0465325Y0177659
X0442585Y0178515
X0474091Y0155009
X0477391Y015495
X0474406Y0143037
X0470842
X0442585Y0039514
X0301325Y0038659
X0301281Y0035399
X0304765Y003058
X0308025Y0030617
X0287606Y0030711
X0284309Y0030516
X0276991Y0024168
X0271552Y0027751
X0264378Y0025217
X0254379Y0029617
X0254333Y0034272
X0257796Y003927
X0255254Y0043201
X025608Y00516
X025922
X0262217
X024199Y0048888
X0241931Y0044342
X0242813Y0036722
X0234257Y0037546
X0229302
X0229862Y0031088
X0234098Y0031051
X0219532Y0031446
X0198857Y0029116
X0195495Y0029086
X0196205Y0055428
X0199943Y0053812
X0225433Y0056855
X0225525Y0061699
X0242231Y0060988
X0242255Y0057688
X0234994Y0047514
X0231255Y0047583
X0229995Y0083102
X0233879Y0083117
X0234098Y0100551
X0229862Y0100588
X0229302Y0107046
X0234257
X0242813Y0106222
X0241931Y0113842
X024199Y0118388
X0234994Y0117014
X0231255Y0117083
X0225433Y0126355
X0225525Y0131199
X0242231Y0130489
X0242255Y0127188
X025608Y01211
X025922
X0262217
X0255254Y0112701
X0257796Y0108771
X0254333Y0103772
X0254379Y0099117
X025336Y008967
X0256606Y008976
X0264378Y0094717
X0271552Y0097251
X0276991Y0093668
X0278288Y0088361
X0280842Y0074199
X0306841Y0073537
X0310406
X0310091Y0085509
X0313391Y008545
X0308025Y0100117
X0304765Y010008
X0301281Y0104899
X0301325Y0108159
X0287606Y0100211
X0284309Y0100016
X0278585Y0109014
X0280842Y01437
X0278288Y0157861
X0276991Y0163168
X0271552Y0166751
X0264378Y0164217
X0256606Y015926
X025336Y015917
X0254379Y0168617
X0254333Y0173272
X0257796Y017827
X0242813Y0175722
X0234257Y0176546
X0229302
X0229862Y0170088
X0234098Y0170051
X0219532Y0170446
X0198857Y0168116
X0195495Y0168086
X0196205Y0124928
X0199943Y0123312
X0198857Y0098616
X0195495Y0098586
X0219532Y0100946
X0229995Y0152602
X0233879Y0152617
X0284309Y0169516
X0287606Y0169711
X0304765Y016958
X0308025Y0169617
X0301281Y0174399
X0301325Y0177659
X0278585Y0178515
X0310091Y0155009
X0313391Y015495
X0310406Y0143037
X0306841
X0278585Y0039514
X01825Y00345
X0144025Y0030617
X0140765Y003058
X0137281Y0035399
X0137325Y0038659
X0123606Y0030711
X0120309Y0030516
X011299Y0024168
X0107552Y0027751
X0100378Y0025217
X0090379Y0029617
X0090333Y0034272
X0093796Y003927
X0091254Y0043201
X009208Y00516
X009522
X0098217
X007799Y0048888
X0077931Y0044342
X0078813Y0036722
X0070257Y0037546
X0065302
X0065862Y0031088
X0070098Y0031051
X0055532Y0031446
X0034857Y0029116
X0035943Y0053812
X0032205Y0055428
X0061433Y0056855
X0061525Y0061699
X0078231Y0060988
X0078255Y0057688
X0070994Y0047514
X0067255Y0047583
X0065995Y0083102
X0069879Y0083117
X0070098Y0100551
X0065862Y0100588
X0065302Y0107046
X0070257
X0078813Y0106222
X0077931Y0113842
X007799Y0118388
X0070994Y0117014
X0067255Y0117083
X0061433Y0126355
X0061525Y0131199
X0078231Y0130489
X0078255Y0127188
X009208Y01211
X009522
X0098217
X0091254Y0112701
X0093796Y0108771
X0090333Y0103772
X0090379Y0099117
X008936Y008967
X0092606Y008976
X0100378Y0094717
X0107552Y0097251
X011299Y0093668
X0114288Y0088361
X0116842Y0074199
X0142841Y0073537
X0146406
X0146091Y0085509
X0149391Y008545
X0144025Y0100117
X0140765Y010008
X0137281Y0104899
X0137325Y0108159
X0123606Y0100211
X0120309Y0100016
X0114585Y0109014
X0116842Y01437
X0114288Y0157861
X011299Y0163168
X0107552Y0166751
X0100378Y0164217
X0092606Y015926
X008936Y015917
X0090379Y0168617
X0090333Y0173272
X0093796Y017827
X0078813Y0175722
X0070257Y0176546
X0065302
X0065862Y0170088
X0070098Y0170051
X0055532Y0170446
X0034857Y0168116
X0032205Y0124928
X0035943Y0123312
X0034857Y0098616
X0055532Y0100946
X0065995Y0152602
X0069879Y0152617
X0120309Y0169516
X0123606Y0169711
X0140765Y016958
X0144025Y0169617
X0137281Y0174399
X0137325Y0177659
X0114585Y0178515
X0146091Y0155009
X0149391Y015495
X0146406Y0143037
X0142841
X0182232Y0160415
X01825Y01735
Y0104
X0182232Y0090915
X0114585Y0039514
X0031495Y0029086
X00185Y00345
X0018232Y0090915
X00185Y0104
X0031495Y0098586
Y0168086
X00185Y01735
X0018232Y0160415
Y0229915
X00185Y0243
X0031495Y0237586
Y0307086
X00185Y03125
X0018232Y0299415
X0034857Y0307116
X0055532Y0309446
X0065862Y0309088
X0070098Y0309051
X0070257Y0315546
X0065302
X0067255Y0325583
X0070994Y0325514
X007799Y0326888
X0077931Y0322342
X0078813Y0314722
X0090333Y0312272
X0090379Y0307617
X008936Y029817
X0092606Y029826
X0100378Y0303217
X0107552Y0305751
X011299Y0302168
X0114288Y0296861
X0116842Y0282699
X0142841Y0282037
X0146406
X0146091Y0294009
X0149391Y029395
X0144025Y0308617
X0140765Y030858
X0137281Y0313399
X0137325Y0316659
X0123606Y0308711
X0120309Y0308516
X0114585Y0317514
X0093796Y031727
X0091254Y0321201
X009208Y03296
X009522
X0098217
X0061433Y0334855
X0035943Y0331812
X0032205Y0333428
Y0263928
X0035943Y0262312
X0034857Y0237616
X0055532Y0239946
X0065862Y0239588
X0070098Y0239551
X0070257Y0246046
X0065302
X0067255Y0256083
X0070994Y0256014
X007799Y0257388
X0077931Y0252842
X0078813Y0245222
X0090333Y0242772
X0090379Y0238117
X008936Y022867
X0092606Y022876
X0100378Y0233717
X0107552Y0236251
X011299Y0232668
X0114288Y0227361
X0116842Y0213199
X0142841Y0212537
X0146406
X0146091Y0224509
X0149391Y022445
X0144025Y0239117
X0140765Y023908
X0137281Y0243899
X0137325Y0247159
X0123606Y0239211
X0120309Y0239016
X0114585Y0248014
X0093796Y0247771
X0091254Y0251701
X009208Y02601
X009522
X0098217
X0078255Y0266188
X0078231Y0269489
X0061525Y0270199
X0061433Y0265355
X0065995Y0291602
X0069879Y0291617
Y0222117
X0065995Y0222102
X0061525Y0200699
X0061433Y0195855
X0067255Y0186583
X0070994Y0186514
X007799Y0187888
X0077931Y0183342
X0078255Y0196688
X0078231Y0199988
X009208Y01906
X009522
X0098217
X0091254Y0182201
X0035943Y0192812
X0032205Y0194428
X0182232Y0229915
X01825Y0243
X0182232Y0299415
X01825Y03125
X0195495Y0307086
X0198857Y0307116
X0219532Y0309446
X0229862Y0309088
X0234098Y0309051
X0234257Y0315546
X0229302
X0231255Y0325583
X0234994Y0325514
X024199Y0326888
X0241931Y0322342
X0242813Y0314722
X0254333Y0312272
X0254379Y0307617
X025336Y029817
X0256606Y029826
X0264378Y0303217
X0271552Y0305751
X0276991Y0302168
X0278288Y0296861
X0280842Y0282699
X0306841Y0282037
X0310406
X0310091Y0294009
X0313391Y029395
X0308025Y0308617
X0304765Y030858
X0301281Y0313399
X0301325Y0316659
X0287606Y0308711
X0284309Y0308516
X0278585Y0317514
X0257796Y031727
X0255254Y0321201
X025608Y03296
X025922
X0262217
X0225433Y0334855
X0199943Y0331812
X0196205Y0333428
Y0263928
X0199943Y0262312
X0198857Y0237616
X0195495Y0237586
X0219532Y0239946
X0229862Y0239588
X0234098Y0239551
X0234257Y0246046
X0229302
X0231255Y0256083
X0234994Y0256014
X024199Y0257388
X0241931Y0252842
X0242813Y0245222
X0254333Y0242772
X0254379Y0238117
X025336Y022867
X0256606Y022876
X0264378Y0233717
X0271552Y0236251
X0276991Y0232668
X0278288Y0227361
X0280842Y0213199
X0306841Y0212537
X0310406
X0310091Y0224509
X0313391Y022445
X0308025Y0239117
X0304765Y023908
X0301281Y0243899
X0301325Y0247159
X0287606Y0239211
X0284309Y0239016
X0278585Y0248014
X0257796Y0247771
X0255254Y0251701
X025608Y02601
X025922
X0262217
X0242255Y0266188
X0242231Y0269489
X0225525Y0270199
X0225433Y0265355
X0229995Y0291602
X0233879Y0291617
Y0222117
X0229995Y0222102
X0225525Y0200699
X0225433Y0195855
X0231255Y0186583
X0234994Y0186514
X024199Y0187888
X0241931Y0183342
X0242255Y0196688
X0242231Y0199988
X025608Y01906
X025922
X0262217
X0255254Y0182201
X0199943Y0192812
X0196205Y0194428
X0360206
X0363943Y0192812
X0389433Y0195855
X0389525Y0200699
X0406231Y0199988
X0406255Y0196688
X040599Y0187888
X0405931Y0183342
X0398994Y0186514
X0395255Y0186583
X0419254Y0182201
X042008Y01906
X042322
X0426217
X0444842Y0213199
X0442288Y0227361
X044099Y0232668
X0435552Y0236251
X0428378Y0233717
X0420606Y022876
X041736Y022867
X0418379Y0238117
X0418333Y0242772
X0421796Y0247771
X0419254Y0251701
X042008Y02601
X042322
X0426217
X040599Y0257388
X0405931Y0252842
X0406813Y0245222
X0398257Y0246046
X0393302
X0393862Y0239588
X0398098Y0239551
X0383533Y0239946
X0362857Y0237616
X0359495Y0237586
X03465Y0243
X0346232Y0229915
X0360206Y0263928
X0363943Y0262312
X0389433Y0265355
X0389525Y0270199
X0406231Y0269489
X0406255Y0266188
X0398994Y0256014
X0395255Y0256083
X0393995Y0222102
X0397879Y0222117
X0448309Y0239016
X0451606Y0239211
X0468765Y023908
X0472025Y0239117
X0465282Y0243899
X0465325Y0247159
X0442585Y0248014
X0444842Y0282699
X0442288Y0296861
X044099Y0302168
X0435552Y0305751
X0428378Y0303217
X0420606Y029826
X041736Y029817
X0418379Y0307617
X0418333Y0312272
X0421796Y031727
X0419254Y0321201
X042008Y03296
X042322
X0426217
X040599Y0326888
X0405931Y0322342
X0406813Y0314722
X0398257Y0315546
X0393302
X0393862Y0309088
X0398098Y0309051
X0383533Y0309446
X0362857Y0307116
X0359495Y0307086
X03465Y03125
X0346232Y0299415
X0360206Y0333428
X0363943Y0331812
X0389433Y0334855
X0395255Y0325583
X0398994Y0325514
X0397879Y0291617
X0393995Y0291602
X0448309Y0308516
X0451606Y0308711
X0468765Y030858
X0472025Y0308617
X0465282Y0313399
X0465325Y0316659
X0442585Y0317514
X0474091Y0294009
X0477391Y029395
X0474406Y0282037
X0470842
X0474091Y0224509
X0477391Y022445
X0474406Y0212537
X0470842
X0510232Y0229915
X05105Y0243
X0523495Y0237586
X0526857Y0237616
X0547533Y0239946
X0557862Y0239588
X0562098Y0239551
X0562257Y0246046
X0557302
X0559255Y0256083
X0562994Y0256014
X056999Y0257388
X0569931Y0252842
X0570813Y0245222
X0582333Y0242772
X0582379Y0238117
X058136Y022867
X0584606Y022876
X0592378Y0233717
X0599552Y0236251
X0604991Y0232668
X0606288Y0227361
X0608842Y0213199
X0634842Y0212537
X0638406
X0638092Y0224509
X0641391Y022445
X0636025Y0239117
X0632765Y023908
X0629282Y0243899
X0629325Y0247159
X0615606Y0239211
X0612309Y0239016
X0606585Y0248014
X0585796Y0247771
X0583254Y0251701
X058408Y02601
X058722
X0590217
X0570255Y0266188
X0570231Y0269489
X0553525Y0270199
X0553433Y0265355
X0527943Y0262312
X0524205Y0263928
X0523495Y0307086
X0526857Y0307116
X05105Y03125
X0510232Y0299415
X0547533Y0309446
X0557862Y0309088
X0562098Y0309051
X0562257Y0315546
X0557302
X0559255Y0325583
X0562994Y0325514
X056999Y0326888
X0569931Y0322342
X0570813Y0314722
X0582333Y0312272
X0582379Y0307617
X058136Y029817
X0584606Y029826
X0592378Y0303217
X0599552Y0305751
X0604991Y0302168
X0606288Y0296861
X0608842Y0282699
X0634842Y0282037
X0638406
X0638092Y0294009
X0641391Y029395
X0636025Y0308617
X0632765Y030858
X0629282Y0313399
X0629325Y0316659
X0615606Y0308711
X0612309Y0308516
X0606585Y0317514
X0585796Y031727
X0583254Y0321201
X058408Y03296
X058722
X0590217
X0553433Y0334855
X0527943Y0331812
X0524205Y0333428
X0557996Y0291602
X0561879Y0291617
Y0222117
X0557996Y0222102
X0553525Y0200699
X0553433Y0195855
X0559255Y0186583
X0562994Y0186514
X056999Y0187888
X0569931Y0183342
X0570255Y0196688
X0570231Y0199988
X058408Y01906
X058722
X0590217
X0583254Y0182201
X0527943Y0192812
X0524205Y0194428
X0688206
X0691943Y0192812
X0717433Y0195855
X0717525Y0200699
X0734231Y0199988
X0734255Y0196688
X073399Y0187888
X0733931Y0183342
X0726994Y0186514
X0723255Y0186583
X0747254Y0182201
X074808Y01906
X075122
X0754217
X0772842Y0213199
X0770289Y0227361
X0768991Y0232668
X0763553Y0236251
X0756378Y0233717
X0748606Y022876
X0745361Y022867
X0746379Y0238117
X0746333Y0242772
X0749796Y0247771
X0747254Y0251701
X074808Y02601
X075122
X0754217
X073399Y0257388
X0733931Y0252842
X0734813Y0245222
X0726257Y0246046
X0721302
X0721862Y0239588
X0726098Y0239551
X0711533Y0239946
X0690857Y0237616
X0687495Y0237586
X06745Y0243
X0674232Y0229915
X0688206Y0263928
X0691943Y0262312
X0717433Y0265355
X0717525Y0270199
X0734231Y0269489
X0734255Y0266188
X0726994Y0256014
X0723255Y0256083
X0721996Y0222102
X0725879Y0222117
X0776309Y0239016
X0779606Y0239211
X0796766Y023908
X0800025Y0239117
X0793282Y0243899
X0793325Y0247159
X0770585Y0248014
X0772842Y0282699
X0770289Y0296861
X0768991Y0302168
X0763553Y0305751
X0756378Y0303217
X0748606Y029826
X0745361Y029817
X0746379Y0307617
X0746333Y0312272
X0749796Y031727
X0747254Y0321201
X074808Y03296
X075122
X0754217
X073399Y0326888
X0733931Y0322342
X0734813Y0314722
X0726257Y0315546
X0721302
X0721862Y0309088
X0726098Y0309051
X0711533Y0309446
X0690857Y0307116
X0687495Y0307086
X06745Y03125
X0674232Y0299415
X0688206Y0333428
X0691943Y0331812
X0717433Y0334855
X0723255Y0325583
X0726994Y0325514
X0725879Y0291617
X0721996Y0291602
X0776309Y0308516
X0779606Y0308711
X0796766Y030858
X0800025Y0308617
X0793282Y0313399
X0793325Y0316659
X0770585Y0317514
X0802092Y0294009
X0805391Y029395
X0802407Y0282037
X0798842
X0802092Y0224509
X0805391Y022445
X0802407Y0212537
X0798842
X0734255Y0335688
X0734231Y0338988
X0717525Y0339699
X0570231Y0338988
X0570255Y0335688
X0553525Y0339699
X0406231Y0338988
X0406255Y0335688
X0389525Y0339699
X0242231Y0338988
X0242255Y0335688
X0225525Y0339699
X0078231Y0338988
X0078255Y0335688
X0061525Y0339699
T02
X00085Y00065
Y00215
X0155Y0008629
X01725Y00065
Y00215
X0319Y0008629
X03365Y00065
Y00215
X0483Y0008629
X05005Y00065
Y00215
X0647Y0008629
X06645Y00065
Y00215
X0811Y0008629
Y00225
Y00355
Y0049
Y00615
Y0078129
Y0092
Y0105
Y01185
Y0131
Y0147629
Y01615
Y01745
X06645Y01735
Y01605
Y01455
Y01305
Y01175
Y0104
Y0091
Y0076
Y0061
Y0048
Y00345
X0647Y00355
Y00225
Y0049
Y00615
Y0078129
Y0092
Y0105
Y01185
Y0131
Y0147629
Y01615
Y01745
X05005Y01735
Y01605
Y01455
Y01305
Y01175
Y0104
Y0091
Y0076
Y0061
Y0048
Y00345
X0483Y00355
Y00225
Y0049
Y00615
Y0078129
Y0092
Y0105
Y01185
Y0131
Y0147629
Y01615
Y01745
X03365Y01735
Y01605
Y01455
Y01305
Y01175
Y0104
Y0091
Y0076
Y0061
Y0048
Y00345
X0319Y00355
Y00225
Y0049
Y00615
Y0078129
Y0092
Y0105
Y01185
Y0131
Y0147629
Y01615
Y01745
X01725Y01735
Y01605
Y01455
Y01305
Y01175
Y0104
Y0091
Y0076
Y0061
Y0048
Y00345
X0155Y00355
Y00225
Y0049
Y00615
Y0078129
Y0092
Y0105
Y01185
Y0131
Y0147629
Y01615
Y01745
X00085Y01735
Y01605
Y01455
Y01305
Y01175
Y0104
Y0091
Y0076
Y0061
Y0048
Y00345
Y0187
Y02
Y0215
Y023
Y0243
Y02565
Y02695
Y02845
Y02995
Y03125
Y0326
X0155Y0327
Y03135
Y03005
Y0286629
Y027
Y02575
Y0244
Y0231
Y0217129
Y02005
Y0188
X01725Y0187
Y02
Y0215
Y023
Y0243
Y02565
Y02695
Y02845
Y02995
Y03125
Y0326
X0319Y0327
Y03135
Y03005
Y0286629
Y027
Y02575
Y0244
Y0231
Y0217129
Y02005
Y0188
X03365Y0187
Y02
Y0215
Y023
Y0243
Y02565
Y02695
Y02845
Y02995
Y03125
Y0326
X0483Y0327
Y03135
Y03005
Y0286629
Y027
Y02575
Y0244
Y0231
Y0217129
Y02005
Y0188
X05005Y0187
Y02
Y0215
Y023
Y0243
Y02565
Y02695
Y02845
Y02995
Y03125
Y0326
X0647Y0327
Y03135
Y03005
Y0286629
Y027
Y02575
Y0244
Y0231
Y0217129
Y02005
Y0188
X06645Y0187
Y02
Y0215
Y023
Y0243
Y02565
Y02695
Y02845
Y02995
Y03125
Y0326
X0811Y0327
Y03135
Y03005
Y0286629
Y027
Y02575
Y0244
Y0231
Y0217129
Y02005
Y0188
Y03395
X06645Y0339
X0647Y03395
X05005Y0339
X0483Y03395
X03365Y0339
X0319Y03395
X01725Y0339
X0155Y03395
X00085Y0339
T03
X0019666Y-0010186
X-0009848Y0019685
X0799912Y-0010487
X0829527Y0017408
X-000993Y0306878
X0829827Y0307578
X0640088Y0357336
X0210718Y0357336
M30
